# xmcd
#
# Track frame offsets:
#	150
#	16603
#	31750
#	49092
#	65539
#	83386
#	98848
#	115692
#	132593
#	145016
#	159440
#	176420
#	194157
#	213947
#	230473
#
# Disc length: 3388 seconds
# Revision: 0
# Processed by: cddbd v1.5.2PL0 Copyright (c) Steve Scherf et al.
# Submitted via: dBpowerAMP V12.0
#
DISCID=bc0d3a0f
DTITLE=Mario Benjamin - ROCK-M-BLUES
DYEAR=2017
DGENRE=Blues
TTITLE0=J'ai l'blues du français
TTITLE1=Passe moé ta vie
TTITLE2=Je roule au son du rock n' roll
TTITLE3=Rock n' roll blues
TTITLE4=T'a d'la pogne
TTITLE5=Georgia on my mind
TTITLE6=La rage en d'dans
TTITLE7=Mes petits pneus neufs
TTITLE8=La chanson du petit voilier
TTITLE9=Les Coco-Cônes
TTITLE10=L'été est arrivé
TTITLE11=Pense-pense
TTITLE12=Il n'en reste moins
TTITLE13=La vie d'un chanteur
TTITLE14=La p'tite grenouille
EXTD=
EXTT0=
EXTT1=
EXTT2=
EXTT3=
EXTT4=
EXTT5=
EXTT6=
EXTT7=
EXTT8=
EXTT9=
EXTT10=
EXTT11=
EXTT12=
EXTT13=
EXTT14=
PLAYORDER=
